<svg xmlns="http://www.w3.org/2000/svg" width="180" height="115" viewBox="0 0 180 115">
    <g fill="none" fill-rule="evenodd">
        <path fill="#EDEFF8" d="M0 0h180v115H0z"/>
        <path fill="#5C87F9" d="M13.77 11.096h71.803v92.807H13.77z" opacity=".1"/>
        <path fill="#FFF" d="M93.442 11.096h71.803v35.307H93.442zM93.442 54.473h36.393v49.43H93.442zM137.704 54.473h28.525v49.43h-28.525z"/>
        <path fill="#FFF" stroke="#5C87F9" d="M7.385 24.711h70.803v83.737H7.385z"/>
        <g fill="#5C87F9" fill-rule="nonzero">
            <path d="M69.592 87.858l-4.958-5.084 3.537-2.096a.86.86 0 0 0 .414-.801.852.852 0 0 0-.522-.732L52.29 72.692a.818.818 0 0 0-.897.19.87.87 0 0 0-.185.92l6.291 16.178a.835.835 0 0 0 .714.535.828.828 0 0 0 .781-.424l2.043-3.628 4.958 5.085a.822.822 0 0 0 1.179 0l2.419-2.481a.87.87 0 0 0 0-1.209zm-3.008 1.878l-5.137-5.268a.823.823 0 0 0-.698-.243.832.832 0 0 0-.613.42L58.41 87.71l-4.937-12.694L65.85 80.08l-2.99 1.77a.868.868 0 0 0-.172 1.344l5.136 5.269-1.241 1.273zM49.39 69.815a.687.687 0 0 0-.989 0 .73.73 0 0 0 0 1.014l1.553 1.593a.688.688 0 0 0 .989 0 .73.73 0 0 0 0-1.014l-1.553-1.593zM50.164 75.453c0-.444-.341-.804-.762-.804h-2.394c-.42 0-.762.36-.762.804 0 .444.341.803.762.803h2.394c.42 0 .762-.36.762-.803zM48.97 77.885l-1.552 1.593a.73.73 0 0 0 0 1.014.688.688 0 0 0 .988 0l1.553-1.593a.73.73 0 0 0 0-1.014.687.687 0 0 0-.988 0zM53.903 71.623a.788.788 0 0 0 .789-.787v-2.47a.788.788 0 0 0-1.577 0v2.47c0 .435.353.787.788.787zM56.764 71.623c.18 0 .358-.07.495-.21l1.553-1.593a.73.73 0 0 0 0-1.014.687.687 0 0 0-.989 0L56.27 70.4a.73.73 0 0 0 0 1.014c.137.14.316.21.494.21z"/>
        </g>
    </g>
</svg>
