<svg xmlns="http://www.w3.org/2000/svg" width="180" height="115" viewBox="0 0 180 115">
    <g fill="none" fill-rule="evenodd">
        <path fill="#EDEFF8" d="M18.112 0h161.392v30.093H18.112z"/>
        <path fill="#FFF" d="M18.112 30.093h161.392V115H18.112z"/>
        <path fill="#5C87F9" fill-opacity=".1" stroke="#5C87F9" d="M.5 39.023v60.262h136.44V39.023h-15.58l-6.827-7.291-6.827 7.291H.5z"/>
        <rect width="79" height="15" x="29" y="69" fill="#5C87F9" rx="2"/>
        <g fill="#C4CAE0">
            <path fill-rule="nonzero" d="M109.108 6.517v1.594h-2.567v15.306h2.567V25h-2.89c-.65-.017-1.202-.582-1.218-1.251V7.779c.016-.667.566-1.234 1.218-1.251.963 0 1.927-.004 2.89-.01zm10.784-.04c.981.01 1.962.026 2.943.052.227.018.293.044.416.098.438.191.737.651.749 1.152v15.97c-.016.667-.566 1.234-1.218 1.251h-2.89v-1.583h2.567V8.11h-2.567V6.477z"/>
            <path d="M119.892 11.253c0-.583-.46-1.056-1.027-1.056h-8.73c-.567 0-1.027.473-1.027 1.056v8.972c0 .582.46 1.055 1.027 1.055h8.73c.567 0 1.027-.473 1.027-1.055v-8.972z"/>
        </g>
    </g>
</svg>
